# xmcd
#
# Track frame offsets: 
#        150
#        15312
#        32447
#        50397
#        61657
#        79465
#        95412
#        125175
#        145017
#        168352
#        194432
#
# Disc length: 2675 seconds
#
# Revision: 34
# Processed by: cddbd v1.5.2PL0 Copyright (c) Steve Scherf et al.
# Submitted via: ExactAudioCopyFreeDBPlugin 1.0
#
DISCID=8a0a710b
DTITLE=Goran Bregovic - Underground (by Emir Kustorika)
DYEAR=1995
DGENRE=World Music
TTITLE0=Slobodan Salijevic and Goran Bregovic - Kalašnjikov (cf. Kalashn
TTITLE0=ikov)
TTITLE1=Cesária Évora - Ausência (feat. Cesária Évora)
TTITLE2=Slobodan Salijevic - Mesečina - Moonlight
TTITLE3=Goran Bregovic and Kolic Zlatko - Ya Ya (Ringe Ringe Raja)
TTITLE4=Danjela Ratkova and Ljudmila Ratkova and Snezana Borisova and Lidija
TTITLE4=Ljubenova - Cajesukarije-Čoček
TTITLE5=Slobodan Salijevic and Boban Markovic - Wedding‐Čoček
TTITLE6=Vesna Jovanovic - War
TTITLE7=Boban Markovic and Slobodan Salijevic - Underground‐Čoček
TTITLE8=Vesna Jovanovic - Underground Tango
TTITLE9=Danjela Ratkova and Ljudmila Ratkova - The Belly Button Of The
TTITLE9=World
TTITLE10=Boban Markovic - Sheva
EXTD=YEAR: 1995
EXTT0=Instrumental
EXTT1=Instrumental
EXTT2=Instrumental
EXTT3=Instrumental
EXTT4=Instrumental
EXTT5=Instrumental
EXTT6=Instrumental
EXTT7=Instrumental
EXTT8=Instrumental
EXTT9=Instrumental
EXTT10=Instrumental
PLAYORDER=
